<?xml version="1.0" encoding="UTF-8" standalone="no"?>
<!DOCTYPE svg PUBLIC "-//W3C//DTD SVG 1.1//EN" "http://www.w3.org/Graphics/SVG/1.1/DTD/svg11.dtd">
<svg width="100%" height="100%" viewBox="0 0 237 284" version="1.1" xmlns="http://www.w3.org/2000/svg" xmlns:xlink="http://www.w3.org/1999/xlink" xml:space="preserve" xmlns:serif="http://www.serif.com/" style="fill-rule:evenodd;clip-rule:evenodd;stroke-linejoin:round;stroke-miterlimit:2;">
    <g transform="matrix(1,0,0,1,-428.854315,-123.394017)">
        <g transform="matrix(1,0,0,1,59.055118,80.385827)">
            <g transform="matrix(1.267902,0,0,1.267902,-38.301097,-68.679836)">
                <path d="M421.998,190.478C421.994,190.382 421.993,190.286 421.993,190.188C421.993,188.772 422.627,186.526 423.897,183.45C425.167,180.374 427.803,175.809 431.807,169.754C436.495,162.771 441.768,155.728 447.627,148.624C453.487,141.519 459.48,134.622 465.608,127.933C471.736,121.243 477.645,114.993 483.333,109.183C489.021,103.372 494.063,98.294 498.458,93.948C496.26,95.511 493.819,97.415 491.133,99.661C488.448,101.907 485.152,104.8 481.246,108.34C477.339,111.88 472.53,116.336 466.817,121.707C461.104,127.078 454.146,133.694 445.943,141.556C441.841,145.462 435.896,151.443 428.108,159.5C420.32,167.557 411.177,177.713 400.679,189.969C398.14,192.947 396.395,194.778 395.442,195.462C394.49,196.146 393.746,196.487 393.208,196.487C392.867,196.487 392.513,196.243 392.146,195.755C391.78,195.267 391.597,194.485 391.597,193.411C391.597,189.31 393.013,183.926 395.845,177.261C398.677,170.596 402.693,163.052 407.894,154.629C413.094,146.207 419.258,137.283 426.387,127.859C433.516,118.436 441.353,108.89 449.898,99.222C447.164,101.712 442.171,106.717 434.92,114.236C427.669,121.756 417.623,132.571 404.781,146.683C393.648,158.89 383.638,168.741 374.751,176.236C365.865,183.731 358.003,189.212 351.167,192.679C345.308,195.608 340.132,197.073 335.64,197.073C331.05,197.073 327.608,196.194 325.313,194.437C323.018,192.679 321.871,190.433 321.871,187.698C321.871,185.452 322.627,183.78 324.141,182.681C325.655,181.583 327.168,181.033 328.682,181.033C329.463,181.033 330.281,181.302 331.136,181.839C331.99,182.376 332.417,183.23 332.417,184.402C332.417,185.33 332.002,186.172 331.172,186.929C330.342,187.686 329.366,188.064 328.243,188.064C327.608,188.064 326.985,188.016 326.375,187.918C325.765,187.82 325.215,187.601 324.727,187.259C324.727,187.454 324.715,187.625 324.69,187.771C324.666,187.918 324.654,188.04 324.654,188.138C324.654,190.237 325.582,191.922 327.437,193.191C329.292,194.461 332.002,195.096 335.567,195.096C339.18,195.096 343.343,194.021 348.055,191.873C352.767,189.725 358.333,186.148 364.754,181.143C371.175,176.138 378.731,169.388 387.422,160.892C396.114,152.396 406.246,141.824 417.818,129.178C427.535,118.582 435.506,110.318 441.731,104.385C447.957,98.453 452.645,94.29 455.794,91.897C458.943,89.505 460.738,88.309 461.177,88.309C461.519,88.309 461.934,88.37 462.422,88.492C462.911,88.614 463.155,88.797 463.155,89.041C463.155,89.334 462.789,89.798 462.056,90.433L460.262,92.044C459.554,92.679 458.687,93.509 457.662,94.534C456.392,95.901 454.451,98.428 451.839,102.115C449.227,105.801 446.199,110.245 442.757,115.445C439.314,120.645 435.652,126.272 431.771,132.327C427.889,138.382 424.043,144.485 420.235,150.638C416.426,156.79 412.85,162.625 409.505,168.143C406.16,173.66 403.279,178.531 400.862,182.754C398.445,186.978 396.724,190.14 395.699,192.239C401.021,186.087 405.843,180.569 410.164,175.687C414.485,170.804 418.636,166.226 422.615,161.954C426.595,157.681 430.672,153.421 434.847,149.173C439.021,144.925 443.599,140.396 448.58,135.586C453.56,130.777 459.224,125.369 465.572,119.363C474.019,111.502 481.062,105.289 486.702,100.723C492.342,96.158 496.846,92.911 500.215,90.982C503.584,89.053 506.026,88.089 507.54,88.089C508.028,88.089 508.272,88.284 508.272,88.675C508.272,89.017 507.637,89.627 506.368,90.506C505.098,91.385 503.731,92.459 502.266,93.729C497.432,97.977 492.195,103.409 486.556,110.025C480.916,116.641 475.142,123.88 469.234,131.741C463.326,139.603 457.491,147.586 451.729,155.691C445.967,163.797 440.547,171.463 435.469,178.689C433.174,182.059 431.478,184.61 430.379,186.343C430.041,186.876 429.741,187.363 429.48,187.804C434.96,186.212 440.682,185.416 446.648,185.416C451.259,185.416 451.634,185.656 452.264,186.21C452.93,186.796 452.929,188.192 452.315,188.797C451.115,189.979 447.798,192.056 445.064,193.301C442.33,194.546 439.693,195.499 437.154,196.158C434.615,196.817 432.515,197.146 430.855,197.146C427.876,197.146 425.655,196.475 424.19,195.132C423.521,194.519 423.005,193.842 422.641,193.101C420.127,194.346 417.692,195.751 415.337,197.318C410.527,200.516 406.609,204.166 403.581,208.267C400.554,212.369 399.04,216.666 399.04,221.158C399.04,224.283 400.322,227.201 402.885,229.91C405.449,232.62 409.123,234.513 413.908,235.587C418.889,229.434 424.577,223.624 430.974,218.155C437.37,212.686 444.109,207.865 451.189,203.69C458.269,199.515 465.324,196.231 472.356,193.839C479.387,191.446 486.028,190.25 492.278,190.25C494.377,190.25 496.123,190.653 497.514,191.458C498.906,192.264 499.602,193.668 499.602,195.67C499.602,198.99 498.039,202.53 494.914,206.29C491.789,210.05 487.59,213.736 482.317,217.349C477.043,220.963 471.135,224.283 464.592,227.31C458.049,230.338 451.311,232.816 444.377,234.744C437.444,236.673 430.827,237.784 424.529,238.077C417.986,245.255 412.578,252.31 408.305,259.244C404.033,266.178 401.897,272.183 401.897,277.262C401.897,281.119 402.861,284.159 404.79,286.38C406.718,288.602 409.319,290.055 412.59,290.738C412.59,284.049 413.823,277.616 416.289,271.439C418.755,265.262 422.063,259.744 426.213,254.886C430.363,250.028 435.014,246.195 440.166,243.387C445.317,240.579 450.603,239.176 456.023,239.176C460.124,239.176 463.261,240.116 465.434,241.995C467.607,243.875 468.694,246.353 468.694,249.43C468.694,253.629 467.351,258.231 464.665,263.236C461.98,268.241 458.232,273.001 453.423,277.518C448.613,282.035 443.022,285.745 436.65,288.651C430.278,291.556 423.405,293.009 416.032,293.009C415.446,293.009 415.007,292.984 414.714,292.935C414.812,295.572 415.166,298.685 415.776,302.274C416.386,305.863 417.473,308.682 419.035,310.733C419.231,310.977 419.328,311.173 419.328,311.319L419.328,311.685C419.328,311.93 419.109,312.052 418.669,312.052C417.79,312.052 416.618,310.221 415.154,306.558C413.689,302.896 412.834,298.306 412.59,292.789C408.147,292.154 404.436,290.311 401.457,287.259C398.479,284.207 396.989,279.947 396.989,274.478C396.989,268.521 398.405,262.357 401.237,255.985C404.07,249.613 407.854,243.375 412.59,237.271C406.975,236.002 402.788,233.621 400.029,230.13C397.27,226.639 395.891,222.647 395.891,218.155C395.891,214.493 397.258,210.758 399.992,206.949C402.727,203.14 406.474,199.6 411.235,196.329C414.511,194.078 418.098,192.128 421.998,190.478ZM451.141,187.236C450.814,186.576 447.502,186.954 446.281,186.954C441.399,186.954 436.223,187.882 430.754,189.737C429.852,190.043 428.959,190.367 428.075,190.71C427.926,191.214 427.852,191.675 427.852,192.093C427.852,194.144 429.268,195.169 432.1,195.169C433.516,195.169 435.433,194.815 437.85,194.107C440.267,193.399 442.793,192.374 445.43,191.031C447.556,189.948 451.458,187.964 451.141,187.236ZM426.36,236.099C431.731,235.562 437.614,234.22 444.011,232.071C450.407,229.923 456.767,227.31 463.091,224.234C469.414,221.158 475.2,217.887 480.449,214.42C485.698,210.953 489.909,207.596 493.083,204.349C496.257,201.102 497.844,198.282 497.844,195.889C497.844,194.473 497.319,193.472 496.269,192.887C495.219,192.301 493.84,192.008 492.131,192.008C488.518,192.008 484.074,193.216 478.801,195.633C473.528,198.05 467.863,201.346 461.809,205.521C455.754,209.696 449.675,214.408 443.571,219.657C437.468,224.906 431.731,230.387 426.36,236.099ZM416.838,291.104C420.793,291.104 424.87,290.03 429.07,287.882C433.269,285.733 437.321,282.938 441.228,279.495C445.134,276.053 448.65,272.342 451.775,268.363C454.9,264.383 457.378,260.489 459.209,256.681C461.04,252.872 461.955,249.6 461.955,246.866C461.955,243.057 459.709,241.153 455.217,241.153C451.067,241.153 446.648,242.435 441.96,244.998C437.273,247.562 432.866,251.114 428.74,255.655C424.614,260.196 421.245,265.482 418.633,271.512C416.02,277.542 414.714,284.024 414.714,290.958L414.714,291.031C415.056,291.08 415.41,291.104 415.776,291.104L416.838,291.104Z" style="fill:rgb(244,239,250);"/>
            </g>
        </g>
    </g>
</svg>
